# xmcd CD database file
#
# Track frame offsets:
#	150
#	15312
#	26970
#	44097
#	59595
#	75117
#	89270
#	108545
#	126447
#	146930
#	165015
#	182997
#	196435
#	212060
#
# Disc length: 3467 seconds
#
# Revision: 1
# Processed by: cddbd v1.5.2PL0 Copyright (c) Steve Scherf et al.
# Submitted via: jetAudio 7
#
DISCID=c50d890e
DTITLE=As Campeãs da Terra - Volume 1
DYEAR=1900
DGENRE=Sertanejo
TTITLE0=Franguinho da Panela
TTITLE1=Catira
TTITLE2=Inspiração Cabocla
TTITLE3=Viola Sem Defeito
TTITLE4=Escolta de Vagalumes
TTITLE5=Rei da Pecuária
TTITLE6=Golpe de Mestre
TTITLE7=Caminheiro
TTITLE8=Nóis É Jeca, Mas É Jóia
TTITLE9=Museu de Cristo
TTITLE10=Meu Recanto, Meu Paraíso
TTITLE11=O Capiau
TTITLE12=Boiadeiro Errante
TTITLE13=O Sentido da Vida (Poema)
EXTD=
EXTT0=
EXTT1=
EXTT2=
EXTT3=
EXTT4=
EXTT5=
EXTT6=
EXTT7=
EXTT8=
EXTT9=
EXTT10=
EXTT11=
EXTT12=
EXTT13=
PLAYORDER=
